<svg width="16" height="20" viewBox="0 0 16 20" fill="none" xmlns="http://www.w3.org/2000/svg">
<path fill-rule="evenodd" clip-rule="evenodd" d="M1.83821 0.237821C1.03821 0.401 0.363851 1.00386 0.0876981 1.80283L0 2.05654V10.003V17.9494L0.0876981 18.2031C0.328887 18.901 0.82666 19.409 1.54172 19.6872L1.79992 19.7876H7.889H13.9781L14.2318 19.6999C14.9296 19.4587 15.4377 18.961 15.7158 18.2459L15.8163 17.9877L15.8273 12.0135C15.8352 7.77315 15.8261 5.96734 15.796 5.79133C15.7406 5.46715 15.5795 5.05738 15.3958 4.77342C15.3024 4.62893 14.5549 3.85171 13.3496 2.64573C11.2904 0.585434 11.2498 0.551083 10.608 0.325863L10.3017 0.218328L6.14652 0.212469C3.8612 0.209214 1.92246 0.220626 1.83821 0.237821ZM3.81046 5.40469C3.40694 5.52969 3.02915 5.87137 2.89342 6.23411C2.81614 6.4406 2.81476 6.50704 2.81476 10.003C2.81476 13.4989 2.81614 13.5654 2.89342 13.7719C2.99682 14.0482 3.25027 14.3243 3.54955 14.4866L3.79131 14.6177H7.90814H12.025L12.2485 14.5045C12.5341 14.3599 12.8182 14.0518 12.9222 13.7736C12.9995 13.567 13.0015 13.497 13.0015 11.0024C13.0015 8.49453 13 8.44119 12.9243 8.34503C12.8113 8.20134 12.6193 8.14742 12.4591 8.2144C12.2021 8.32182 12.2184 8.15374 12.1973 10.9184C12.1792 13.2929 12.1742 13.437 12.1059 13.5497C11.9476 13.8113 12.2391 13.7943 7.90814 13.7943C3.57716 13.7943 3.86867 13.8113 3.71036 13.5497C3.641 13.4353 3.63813 13.2934 3.63813 10.003C3.63813 6.71254 3.641 6.57069 3.71036 6.45623C3.86867 6.1947 3.57716 6.21167 7.90814 6.21167C11.4623 6.21167 11.8314 6.21741 11.9277 6.27432C12.0606 6.35279 12.1446 6.49284 12.1774 6.69037C12.2264 6.98548 12.3658 7.13077 12.6 7.13077C12.8544 7.13077 12.9995 6.96139 13.0007 6.6631C13.0025 6.20045 12.6968 5.72841 12.2485 5.50147L12.025 5.3883L7.96559 5.38168C5.73293 5.37804 3.86312 5.38838 3.81046 5.40469ZM5.7546 7.35737C5.63328 7.46575 5.62911 7.47957 5.61616 7.81692L5.60276 8.16477H5.33725C4.89302 8.16477 4.69047 8.30271 4.69211 8.60414C4.69376 8.89768 4.85943 9.00728 5.30148 9.00728H5.61038V10.003V10.9987H5.30148C4.85943 10.9987 4.69376 11.1083 4.69211 11.4018C4.69047 11.7033 4.89302 11.8412 5.33725 11.8412H5.60276L5.61616 12.189C5.62911 12.5264 5.63328 12.5402 5.7546 12.6486C5.84579 12.73 5.91866 12.7603 6.02371 12.7603C6.31924 12.7603 6.45289 12.5641 6.45289 12.1303V11.8412H7.44859H8.44429L8.44513 12.1763C8.44578 12.4358 8.46091 12.5298 8.51215 12.5931C8.6923 12.8154 9.0005 12.8154 9.18065 12.5931C9.23189 12.5298 9.24701 12.4358 9.24767 12.1763L9.24851 11.8412H9.99651C10.8007 11.8412 10.9437 11.8149 11.0626 11.6452C11.1847 11.4708 11.1163 11.1361 10.9408 11.0499C10.9052 11.0325 10.5142 11.0095 10.0719 10.9988L9.26766 10.9795V10.003V9.02643L10.0719 9.00713C10.5142 8.99648 10.9052 8.97351 10.9408 8.95604C11.1163 8.86988 11.1847 8.53513 11.0626 8.36073C10.9437 8.19104 10.8007 8.16477 9.99651 8.16477H9.24851L9.24767 7.82968C9.24675 7.47429 9.20876 7.37943 9.03083 7.28844C8.85839 7.20024 8.64243 7.2521 8.51215 7.4129C8.46091 7.47617 8.44578 7.57014 8.44513 7.82968L8.44429 8.16477H7.45238H6.46051L6.44711 7.81692C6.43417 7.47957 6.42999 7.46575 6.30867 7.35737C6.13569 7.20285 5.92759 7.20285 5.7546 7.35737ZM6.45289 10.003V11L7.43902 10.9898L8.42514 10.9795V10.003V9.02643L7.43902 9.0162L6.45289 9.00598V10.003Z" fill="black"/>
</svg>
