<svg width="20" height="18" viewBox="0 0 20 18" fill="none" xmlns="http://www.w3.org/2000/svg">
<path fill-rule="evenodd" clip-rule="evenodd" d="M1.58705 0.630214C0.844195 0.829957 0.261534 1.42092 0.0655703 2.17331C0.0187218 2.35319 0 2.66061 0 3.25078V4.07656H7.73483H15.4697V3.25078C15.4697 2.66061 15.4509 2.35319 15.4041 2.17331C15.2056 1.41121 14.6217 0.825475 13.8637 0.628017C13.4855 0.52953 1.95383 0.531551 1.58705 0.630214ZM17.5792 4.87277C17.4595 4.90775 16.7053 5.63711 14.184 8.1558L10.9428 11.3939L10.5034 12.6351C10.2618 13.3178 10.0641 13.9171 10.0641 13.9668C10.0641 14.1903 10.2798 14.4043 10.5053 14.4043C10.5523 14.4043 11.1496 14.2063 11.8326 13.9644L13.0745 13.5244L16.2517 10.3496C17.9991 8.60355 19.4718 7.10637 19.5242 7.02261C19.6442 6.83108 19.6502 6.49106 19.5374 6.27396C19.4322 6.07149 18.485 5.10885 18.2603 4.97604C18.049 4.85114 17.7883 4.81159 17.5792 4.87277ZM0 10.5277C0 14.9158 0.00874555 15.6061 0.0672841 15.8308C0.264742 16.5888 0.850479 17.1726 1.61258 17.3711C1.99141 17.4699 13.4782 17.4699 13.8571 17.3711C14.6379 17.1678 15.2645 16.5217 15.4232 15.7563C15.453 15.613 15.4668 15.0706 15.4595 14.3308L15.4477 13.1367L14.7885 13.7504C13.5833 14.8724 13.7326 14.7809 12.2315 15.3158C10.9461 15.7739 10.9135 15.7829 10.5255 15.7857C10.2515 15.7878 10.0604 15.7644 9.90339 15.7096C9.40695 15.5364 8.93201 15.0614 8.75877 14.565C8.70392 14.4078 8.68067 14.2173 8.68283 13.9429C8.68586 13.555 8.695 13.522 9.15131 12.2438C9.40726 11.527 9.65126 10.8644 9.69349 10.7716C9.74443 10.6597 10.6309 9.73955 12.3225 8.04286L14.8746 5.48289H7.4373H0V10.5277ZM3.21611 6.96315C3.13581 7.0027 3.01715 7.10453 2.95242 7.18943C2.78397 7.41027 2.78423 7.77486 2.95303 7.99614C3.19334 8.31125 2.9961 8.29565 6.73066 8.29459C9.90686 8.29367 10.0957 8.28927 10.266 8.21188C10.7802 7.97834 10.7802 7.20644 10.266 6.9729C10.0956 6.89547 9.90787 6.89116 6.72402 6.8912C3.69997 6.8912 3.34733 6.89846 3.21611 6.96315ZM3.21611 9.77581C3.13581 9.81536 3.01715 9.91719 2.95242 10.0021C2.78397 10.2229 2.78423 10.5875 2.95303 10.8088C3.18433 11.1121 3.15388 11.1082 5.32143 11.1082C7.19998 11.1082 7.27412 11.1051 7.45563 11.0172C7.9699 10.7682 7.96854 10.0195 7.45334 9.78557C7.28651 9.7098 7.13054 9.70382 5.31769 9.70387C3.59577 9.70387 3.34457 9.71248 3.21611 9.77581ZM3.21611 12.5885C3.13581 12.628 3.01715 12.7299 2.95242 12.8148C2.78397 13.0356 2.78423 13.4002 2.95303 13.6215C3.17392 13.9111 3.22916 13.921 4.62116 13.9199C5.74069 13.919 5.88528 13.9106 6.04701 13.8372C6.56124 13.6037 6.56124 12.8318 6.04701 12.5982C5.88502 12.5247 5.74183 12.5165 4.61453 12.5165C3.54365 12.5165 3.34087 12.527 3.21611 12.5885Z" fill="#1D1D1D"/>
</svg>
