<svg width="16" height="16" viewBox="0 0 16 16" fill="none" xmlns="http://www.w3.org/2000/svg">
<path fill-rule="evenodd" clip-rule="evenodd" d="M7.915 0.0849609C5.81581 0.084961 3.8026 0.91886 2.31825 2.40321C0.833899 3.88756 0 5.90077 0 7.99996C0 10.0991 0.833899 12.1124 2.31825 13.5967C3.8026 15.0811 5.81581 15.915 7.915 15.915H11.8725C13.102 15.915 13.7167 15.915 14.2013 15.7144C14.5215 15.5819 14.8124 15.3875 15.0575 15.1424C15.3025 14.8974 15.4969 14.6064 15.6295 14.2862C15.83 13.8017 15.83 13.1869 15.83 11.9575V7.99996C15.83 5.90077 14.9961 3.88756 13.5117 2.40321C12.0274 0.91886 10.0142 0.0849609 7.915 0.0849609ZM4.39722 7.12052C4.39722 6.88727 4.48988 6.66358 4.65481 6.49866C4.81973 6.33373 5.04342 6.24107 5.27667 6.24107H10.5533C10.7866 6.24107 11.0103 6.33373 11.1752 6.49866C11.3401 6.66358 11.4328 6.88727 11.4328 7.12052C11.4328 7.35376 11.3401 7.57745 11.1752 7.74238C11.0103 7.90731 10.7866 7.99996 10.5533 7.99996H5.27667C5.04342 7.99996 4.81973 7.90731 4.65481 7.74238C4.48988 7.57745 4.39722 7.35376 4.39722 7.12052ZM7.03556 10.6383C7.03556 10.4051 7.12821 10.1814 7.29314 10.0164C7.45807 9.85151 7.68176 9.75885 7.915 9.75885H10.5533C10.7866 9.75885 11.0103 9.85151 11.1752 10.0164C11.3401 10.1814 11.4328 10.4051 11.4328 10.6383C11.4328 10.8715 11.3401 11.0952 11.1752 11.2602C11.0103 11.4251 10.7866 11.5177 10.5533 11.5177H7.915C7.68176 11.5177 7.45807 11.4251 7.29314 11.2602C7.12821 11.0952 7.03556 10.8715 7.03556 10.6383Z" fill="#1D1D1D"/>
</svg>
