<svg width="18" height="16" viewBox="0 0 18 16" fill="none" xmlns="http://www.w3.org/2000/svg">
<path d="M12.9315 3.517C12.8385 3.517 12.75 3.4335 12.75 3.3115V0.2215C12.75 0.0994999 12.6997 0 12.6064 0H5.39325C5.29987 0 5.25 0.0994999 5.25 0.2215V3.3115C5.25 3.4335 5.14913 3.5 5.05538 3.5H0.168375C0.076125 3.5 0 3.6335 0 3.754V7.189C0 7.31 0.076125 7.5 0.168375 7.5H8.03813C8.1315 7.5 8.25 7.31 8.25 7.189V6.4565C8.25 6.3345 8.2845 6 8.3775 6H9.62288C9.71587 6 9.75 6.3345 9.75 6.4565V7.189C9.75 7.31 9.8685 7.5 9.96112 7.5H17.8305C17.9242 7.5 18 7.31 18 7.189V3.754C18 3.633 17.9242 3.5 17.8309 3.5H12.9443L12.9315 3.517ZM6.40987 3.5C6.31687 3.5 6.375 3.4335 6.375 3.312V1.5555C6.375 1.433 6.31687 1.5 6.40987 1.5H11.5901C11.6831 1.5 11.625 1.433 11.625 1.5555V3.312C11.625 3.4335 11.6831 3.5 11.5901 3.5H6.40987ZM9.77063 10.856C9.77063 10.977 9.71587 11 9.62288 11H8.3775C8.2845 11 8.25 11.0535 8.25 10.9325V8.4635C8.25 8.3425 8.1315 8 8.0385 8H0.168375C0.076125 8 0 8.3425 0 8.4635V15.778C0.00059061 15.8371 0.0185786 15.8935 0.0500807 15.935C0.0815828 15.9765 0.124072 15.9999 0.168375 16H17.8309C17.8752 16.0001 17.9179 15.977 17.9495 15.9355C17.9812 15.8941 17.9993 15.8377 18 15.7785V8.4635C18 8.3425 17.9242 8 17.8309 8H9.96112C9.8685 8 9.75 8.3425 9.75 8.4635V10.9325L9.77063 10.856Z" fill="black"/>
</svg>
