<svg width="16" height="18" viewBox="0 0 16 18" fill="none" xmlns="http://www.w3.org/2000/svg">
<path fill-rule="evenodd" clip-rule="evenodd" d="M15.83 12.2968C15.83 15.9365 12.532 17.5727 7.915 17.5727C3.29802 17.5727 0 15.9365 0 12.3226C0 8.36567 1.97906 6.36089 5.93594 4.35612L4.53493 1.74636C4.45134 1.61565 4.40479 1.4647 4.40025 1.3096C4.39571 1.15451 4.43334 1.00109 4.50914 0.865712C4.58494 0.730329 4.69606 0.618056 4.83066 0.540864C4.96525 0.463673 5.11827 0.424458 5.2734 0.4274H10.8664C11.0118 0.431121 11.1539 0.471778 11.2793 0.545546C11.4046 0.619314 11.5092 0.723766 11.583 0.849072C11.6569 0.974378 11.6976 1.11642 11.7015 1.26182C11.7053 1.40722 11.6721 1.55121 11.6049 1.68023L9.89406 4.35612C13.8497 6.33395 15.83 8.33873 15.83 12.2968ZM8.68041 6.41233C8.68041 6.20933 8.59977 6.01464 8.45623 5.8711C8.31269 5.72756 8.118 5.64692 7.915 5.64692C7.712 5.64692 7.51731 5.72756 7.37377 5.8711C7.23023 6.01464 7.14958 6.20933 7.14958 6.41233V7.18019C6.6308 7.20018 6.13715 7.40888 5.76135 7.76709C5.38556 8.1253 5.15346 8.60839 5.10865 9.12562C5.06385 9.64286 5.20941 10.1587 5.51801 10.5762C5.82661 10.9937 6.27701 11.2841 6.78464 11.393L8.58856 11.7874C8.77346 11.8272 8.93707 11.934 9.04785 12.0873C9.15863 12.2406 9.20873 12.4295 9.1885 12.6175C9.16826 12.8056 9.07912 12.9795 8.93827 13.1057C8.79741 13.2319 8.61481 13.3015 8.42568 13.3011H7.40431C7.24597 13.3013 7.09145 13.2524 6.96205 13.1612C6.83264 13.07 6.73471 12.9408 6.68176 12.7916C6.65084 12.6937 6.60054 12.603 6.53384 12.5249C6.46715 12.4469 6.38543 12.383 6.29355 12.3372C6.20166 12.2913 6.1015 12.2645 5.99902 12.2581C5.89653 12.2518 5.79383 12.2662 5.69701 12.3004C5.60019 12.3346 5.51124 12.3879 5.43546 12.4572C5.35967 12.5264 5.2986 12.6103 5.25587 12.7036C5.21315 12.797 5.18965 12.898 5.18677 13.0006C5.18389 13.1033 5.20169 13.2054 5.23911 13.3011C5.38344 13.7076 5.63906 14.0653 5.97684 14.3336C6.31462 14.6019 6.72097 14.7699 7.14958 14.8184V15.5973C7.14958 15.8003 7.23023 15.995 7.37377 16.1385C7.51731 16.2821 7.712 16.3627 7.915 16.3627C8.118 16.3627 8.31269 16.2821 8.45623 16.1385C8.59977 15.995 8.68041 15.8003 8.68041 15.5973V14.8184C9.2208 14.757 9.72187 14.5058 10.0945 14.1097C10.4671 13.7135 10.6871 13.198 10.7153 12.6548C10.7435 12.1117 10.5781 11.5762 10.2486 11.1435C9.91902 10.7109 9.44666 10.4092 8.91555 10.2921L7.11162 9.89772C6.96526 9.86776 6.83534 9.78429 6.74726 9.66362C6.65918 9.54295 6.61928 9.39377 6.63536 9.24525C6.65144 9.09672 6.72234 8.95953 6.8342 8.86051C6.94606 8.76148 7.09083 8.70774 7.24021 8.7098H8.42568C8.58424 8.70864 8.73917 8.75715 8.86876 8.84852C8.99834 8.93989 9.09607 9.06953 9.14824 9.21926C9.21947 9.4059 9.36084 9.5573 9.54218 9.64112C9.72352 9.72494 9.93044 9.73455 10.1188 9.66788C10.3071 9.60122 10.4619 9.46357 10.5501 9.28433C10.6383 9.10509 10.6529 8.89846 10.5909 8.70857C10.4476 8.30154 10.1923 7.94326 9.85427 7.67502C9.51627 7.40678 9.10935 7.2395 8.68041 7.19244V6.41233Z" fill="#1D1D1D"/>
</svg>
