<svg width="16" height="16" viewBox="0 0 16 16" fill="none" xmlns="http://www.w3.org/2000/svg">
<path d="M7.87708 12.7502C8.15417 12.7502 8.3885 12.6544 8.58008 12.4628C8.77167 12.2712 8.8672 12.0371 8.86667 11.7606C8.86614 11.484 8.77061 11.2497 8.58008 11.0576C8.38956 10.8655 8.15522 10.7699 7.87708 10.771C7.59895 10.7721 7.36488 10.8678 7.17488 11.0584C6.98488 11.2489 6.88908 11.483 6.8875 11.7606C6.88592 12.0382 6.98171 12.2725 7.17488 12.4636C7.36804 12.6546 7.60211 12.7502 7.87708 12.7502ZM7.16458 9.70225H8.62917C8.62917 9.26683 8.67878 8.92378 8.778 8.67308C8.87722 8.42239 9.15747 8.07933 9.61875 7.64392C9.96181 7.30086 10.2323 6.97417 10.4302 6.66383C10.6281 6.3535 10.7271 5.98089 10.7271 5.546C10.7271 4.80711 10.4566 4.23975 9.91563 3.84392C9.37465 3.44808 8.73472 3.25017 7.99583 3.25017C7.24375 3.25017 6.63364 3.44808 6.1655 3.84392C5.69736 4.23975 5.37067 4.71475 5.18542 5.26892L6.49167 5.7835C6.55764 5.546 6.70621 5.28871 6.93738 5.01163C7.16854 4.73454 7.52136 4.596 7.99583 4.596C8.41806 4.596 8.73472 4.71158 8.94583 4.94275C9.15695 5.17392 9.2625 5.42778 9.2625 5.70433C9.2625 5.96822 9.18333 6.21575 9.025 6.44692C8.86667 6.67808 8.66875 6.89236 8.43125 7.08975C7.8507 7.60433 7.49445 7.99357 7.3625 8.25746C7.23056 8.52135 7.16458 9.00294 7.16458 9.70225ZM7.91667 15.9168C6.82153 15.9168 5.79236 15.7092 4.82917 15.2938C3.86597 14.8784 3.02813 14.3142 2.31563 13.6012C1.60313 12.8882 1.0392 12.0503 0.623834 11.0877C0.208473 10.125 0.00052878 9.09583 1.00211e-06 8.00017C-0.000526776 6.9045 0.207418 5.87533 0.623834 4.91267C1.04025 3.95 1.60418 3.11215 2.31563 2.39913C3.02707 1.6861 3.86492 1.12217 4.82917 0.707334C5.79342 0.2925 6.82258 0.0845556 7.91667 0.0835001C9.01075 0.0824445 10.0399 0.290389 11.0042 0.707334C11.9684 1.12428 12.8063 1.68821 13.5177 2.39913C14.2292 3.11004 14.7933 3.94789 15.2103 4.91267C15.6272 5.87745 15.8349 6.90661 15.8333 8.00017C15.8318 9.09372 15.6238 10.1229 15.2095 11.0877C14.7952 12.0524 14.2313 12.8903 13.5177 13.6012C12.8042 14.3121 11.9663 14.8763 11.0042 15.2938C10.042 15.7113 9.01286 15.9189 7.91667 15.9168Z" fill="#1D1D1D"/>
</svg>
