<svg width="18" height="20" viewBox="0 0 18 20" fill="none" xmlns="http://www.w3.org/2000/svg">
<path d="M3.13994 2.648C4.70211 1.10944 6.80733 0.247954 8.99994 0.250004C11.1959 0.250004 13.3039 1.111 14.8599 2.648C16.2689 4.038 17.0029 5.594 17.1969 7.21C17.3899 8.812 17.0449 10.42 16.3869 11.928C15.0809 14.928 12.4849 17.656 9.99494 19.431C9.70471 19.6386 9.3568 19.7503 8.99994 19.7503C8.64308 19.7503 8.29517 19.6386 8.00494 19.431C5.51494 17.656 2.91894 14.927 1.61194 11.928C0.954941 10.42 0.610941 8.812 0.802941 7.209C0.996941 5.594 1.73094 4.039 3.13994 2.648ZM11.8529 6.439C11.966 6.27761 12.011 6.0782 11.9782 5.88389C11.9454 5.68959 11.8375 5.51599 11.6777 5.40064C11.5179 5.28528 11.3192 5.23744 11.1244 5.26745C10.9297 5.29746 10.7546 5.40291 10.6369 5.561L8.16994 8.977L7.16494 7.829C7.10013 7.75481 7.02135 7.6941 6.93308 7.65035C6.84481 7.60661 6.74879 7.58067 6.6505 7.57403C6.55221 7.56739 6.45357 7.58018 6.36022 7.61166C6.26687 7.64314 6.18064 7.6927 6.10644 7.7575C6.03224 7.82231 5.97154 7.9011 5.92779 7.98937C5.88404 8.07763 5.85811 8.17366 5.85147 8.27195C5.84483 8.37024 5.85761 8.46887 5.88909 8.56222C5.92057 8.65557 5.97013 8.74181 6.03494 8.816L7.41494 10.392C7.85794 10.899 8.65894 10.862 9.05394 10.315L11.8529 6.439Z" fill="white"/>
</svg>
