<svg width="15" height="15" viewBox="0 0 15 15" fill="none" xmlns="http://www.w3.org/2000/svg">
<path d="M0.791667 8.29167H5.54167C5.97708 8.29167 6.33333 7.93542 6.33333 7.5V1.16667C6.33333 0.73125 5.97708 0.375 5.54167 0.375H0.791667C0.35625 0.375 0 0.73125 0 1.16667V7.5C0 7.93542 0.35625 8.29167 0.791667 8.29167ZM0.791667 14.625H5.54167C5.97708 14.625 6.33333 14.2688 6.33333 13.8333V10.6667C6.33333 10.2312 5.97708 9.875 5.54167 9.875H0.791667C0.35625 9.875 0 10.2312 0 10.6667V13.8333C0 14.2688 0.35625 14.625 0.791667 14.625ZM8.70833 14.625H13.4583C13.8938 14.625 14.25 14.2688 14.25 13.8333V7.5C14.25 7.06458 13.8938 6.70833 13.4583 6.70833H8.70833C8.27292 6.70833 7.91667 7.06458 7.91667 7.5V13.8333C7.91667 14.2688 8.27292 14.625 8.70833 14.625ZM7.91667 1.16667V4.33333C7.91667 4.76875 8.27292 5.125 8.70833 5.125H13.4583C13.8938 5.125 14.25 4.76875 14.25 4.33333V1.16667C14.25 0.73125 13.8938 0.375 13.4583 0.375H8.70833C8.27292 0.375 7.91667 0.73125 7.91667 1.16667Z" fill="#1D1D1D"/>
</svg>
