<svg width="16" height="20" viewBox="0 0 16 20" fill="none" xmlns="http://www.w3.org/2000/svg">
<path d="M6.7375 14.8125H8.6625V9.0375H6.7375V14.8125ZM7.7 7.1125C7.97271 7.1125 8.20146 7.0201 8.38626 6.8353C8.57106 6.6505 8.66314 6.42207 8.6625 6.15C8.66186 5.87793 8.56946 5.6495 8.3853 5.4647C8.20114 5.2799 7.97271 5.1875 7.7 5.1875C7.42729 5.1875 7.19886 5.2799 7.0147 5.4647C6.83054 5.6495 6.73814 5.87793 6.7375 6.15C6.73686 6.42207 6.82926 6.65082 7.0147 6.83626C7.20014 7.0217 7.42858 7.11378 7.7 7.1125ZM7.7 19.625C5.47021 19.0635 3.62927 17.7841 2.17718 15.7865C0.725084 13.789 -0.000641241 11.5714 4.25132e-07 9.13375V3.2625L7.7 0.375L15.4 3.2625V9.13375C15.4 11.5721 14.6743 13.79 13.2228 15.7875C11.7714 17.785 9.93043 19.0642 7.7 19.625Z" fill="#1D1D1D"/>
</svg>
