<svg width="16" height="18" viewBox="0 0 16 18" fill="none" xmlns="http://www.w3.org/2000/svg">
<path fill-rule="evenodd" clip-rule="evenodd" d="M10.1774 2.03479L7.91441 0.677734L5.65147 2.03479L3.02313 2.26743L1.98918 4.69486L0 6.4279L0.590996 8.99985L0 11.5718L1.98918 13.3048L3.02313 15.7323L5.65147 15.9649L7.91441 17.322L10.1774 15.9649L12.8057 15.7323L13.8396 13.3048L15.83 11.5718L15.2367 8.99985L15.8288 6.4279L13.8385 4.69486L12.8045 2.26743L10.1774 2.03479ZM5.1909 7.23744C5.1909 7.08163 5.25279 6.93221 5.36296 6.82203C5.47313 6.71186 5.62256 6.64997 5.77837 6.64997C5.93417 6.64997 6.0836 6.71186 6.19377 6.82203C6.30394 6.93221 6.36584 7.08163 6.36584 7.23744C6.36584 7.39325 6.30394 7.54267 6.19377 7.65284C6.0836 7.76302 5.93417 7.82491 5.77837 7.82491C5.62256 7.82491 5.47313 7.76302 5.36296 7.65284C5.25279 7.54267 5.1909 7.39325 5.1909 7.23744ZM5.77837 5.47502C5.31095 5.47502 4.86267 5.66071 4.53215 5.99122C4.20163 6.32174 4.01595 6.77002 4.01595 7.23744C4.01595 7.70486 4.20163 8.15314 4.53215 8.48365C4.86267 8.81417 5.31095 8.99985 5.77837 8.99985C6.24579 8.99985 6.69407 8.81417 7.02458 8.48365C7.3551 8.15314 7.54078 7.70486 7.54078 7.23744C7.54078 6.77002 7.3551 6.32174 7.02458 5.99122C6.69407 5.66071 6.24579 5.47502 5.77837 5.47502ZM5.60683 12.3531L11.4815 6.47843L10.6497 5.64657L4.77497 11.5213L5.60683 12.3531ZM9.89067 11.3497C9.89067 11.1939 9.95256 11.0445 10.0627 10.9343C10.1729 10.8242 10.3223 10.7623 10.4781 10.7623C10.6339 10.7623 10.7834 10.8242 10.8935 10.9343C11.0037 11.0445 11.0656 11.1939 11.0656 11.3497C11.0656 11.5055 11.0037 11.655 10.8935 11.7651C10.7834 11.8753 10.6339 11.9372 10.4781 11.9372C10.3223 11.9372 10.1729 11.8753 10.0627 11.7651C9.95256 11.655 9.89067 11.5055 9.89067 11.3497ZM10.4781 9.58732C10.0107 9.58732 9.56244 9.77301 9.23192 10.1035C8.90141 10.434 8.71572 10.8823 8.71572 11.3497C8.71572 11.8172 8.90141 12.2654 9.23192 12.596C9.56244 12.9265 10.0107 13.1122 10.4781 13.1122C10.9456 13.1122 11.3938 12.9265 11.7244 12.596C12.0549 12.2654 12.2406 11.8172 12.2406 11.3497C12.2406 10.8823 12.0549 10.434 11.7244 10.1035C11.3938 9.77301 10.9456 9.58732 10.4781 9.58732Z" fill="#1D1D1D"/>
</svg>
