<svg width="17" height="18" viewBox="0 0 17 18" fill="none" xmlns="http://www.w3.org/2000/svg">
<path fill-rule="evenodd" clip-rule="evenodd" d="M9.55026 1.37381L7.59244 2.21039L7.59199 9.18941L7.59151 16.1684H8.19538H8.79925V14.6974V13.2264L8.6371 13.2447C8.54794 13.2547 8.43966 13.2495 8.39652 13.2331C8.2507 13.1776 8.26105 12.923 8.41101 12.876C8.52078 12.8416 10.638 12.6472 10.6974 12.6661C10.7295 12.6762 10.7745 12.7259 10.7975 12.7764C10.8563 12.9054 10.7548 13.0418 10.5902 13.0549C10.5257 13.06 10.4379 13.0719 10.3952 13.0814L10.3176 13.0986V14.6335V16.1684H12.8883H15.4591L15.4586 9.18941L15.4581 2.21039L13.5348 1.39199C12.477 0.941852 11.5883 0.565382 11.5598 0.555375C11.5313 0.545368 10.627 0.91366 9.55026 1.37381ZM12.3604 2.20004C12.3285 2.23193 12.319 3.573 12.319 8.02635C12.319 13.5869 12.3214 13.8135 12.3821 13.8684C12.4608 13.9397 12.5236 13.9405 12.6218 13.8717L12.6985 13.8181V8.0551C12.6985 4.14851 12.687 2.27061 12.6628 2.22537C12.6219 2.14887 12.4278 2.13261 12.3604 2.20004ZM10.275 2.46392L9.90461 2.62448L9.90406 3.33963L9.90347 4.05479L10.1882 3.94857C10.3447 3.89015 10.5272 3.823 10.5936 3.79933L10.7144 3.7563L10.7237 3.02648C10.731 2.45329 10.7236 2.29739 10.6892 2.30001C10.6651 2.30187 10.4787 2.37561 10.275 2.46392ZM13.3423 2.63583C13.2896 2.69397 13.2851 3.13262 13.2851 8.24319C13.2851 13.7415 13.2857 13.788 13.3542 13.8565C13.3921 13.8944 13.4542 13.9255 13.4922 13.9255C13.5301 13.9255 13.5923 13.8944 13.6302 13.8565C13.6986 13.788 13.6992 13.7415 13.6992 8.25679C13.6992 3.30692 13.6936 2.71806 13.6455 2.64942C13.5792 2.5547 13.422 2.54766 13.3423 2.63583ZM8.72161 3.13338L8.38517 3.27686V3.94643C8.38517 4.46718 8.39476 4.61262 8.4283 4.60082C8.45204 4.59244 8.61509 4.53298 8.79062 4.46866L9.10981 4.35172V3.66927C9.10981 3.29391 9.09818 2.98749 9.08393 2.98835C9.06968 2.98918 8.90667 3.05447 8.72161 3.13338ZM14.3401 3.04101C14.2912 3.08987 14.2858 3.62835 14.2858 8.45324C14.2858 13.6002 14.2883 13.8135 14.349 13.8684C14.4277 13.9397 14.4905 13.9405 14.5887 13.8717L14.6654 13.8181V8.45952C14.6654 3.31209 14.6629 3.09877 14.6023 3.04391C14.5228 2.97193 14.4104 2.97068 14.3401 3.04101ZM3.47657 5.48109L1.44929 6.3496V11.259V16.1684H2.08767H2.72604V15.0252V13.8821L2.56138 13.9039C2.35754 13.931 2.24295 13.8654 2.24295 13.7218C2.24295 13.5339 2.27883 13.5248 3.48136 13.4097C4.50052 13.3122 4.60618 13.3074 4.68048 13.3561C4.7772 13.4195 4.79093 13.5824 4.70549 13.6533C4.67447 13.6791 4.56964 13.7082 4.47257 13.7179L4.2961 13.7357L4.28703 14.9521L4.27795 16.1684H5.7278H7.17764L7.16891 10.7264L7.16018 5.28437L6.38377 4.94875C5.95675 4.76414 5.58407 4.613 5.55561 4.61286C5.52714 4.61273 4.59159 5.00341 3.47657 5.48109ZM10.2744 4.80886L9.90347 4.93409V5.69969V6.4653L10.1191 6.4026C10.2378 6.36809 10.4241 6.31481 10.5332 6.28421L10.7316 6.22851V5.45307C10.7316 4.85414 10.7218 4.67832 10.6885 4.68064C10.6648 4.68229 10.4785 4.73999 10.2744 4.80886ZM8.70436 5.34358L8.38517 5.45131V6.16937V6.88739L8.46281 6.86782C8.50553 6.85709 8.66467 6.8124 8.8165 6.76858L9.09256 6.68887L9.10188 5.95929C9.10919 5.38644 9.10177 5.2304 9.06737 5.23278C9.04325 5.23444 8.87989 5.2843 8.70436 5.34358ZM3.8734 6.44632L3.55421 6.58662V7.1672V7.74775L3.89065 7.62749C4.07571 7.56134 4.23099 7.5072 4.23572 7.5072C4.24045 7.5072 4.24434 7.23546 4.24434 6.90333C4.24434 6.5712 4.23268 6.30094 4.21846 6.30274C4.20425 6.30456 4.04897 6.36916 3.8734 6.44632ZM2.63978 6.96982L2.36372 7.08566L2.3542 7.62694C2.34671 8.05251 2.35409 8.16573 2.3887 8.15651C2.41293 8.15006 2.54533 8.10696 2.68291 8.06076L2.93308 7.9767V7.41413C2.93308 7.10471 2.92922 6.85212 2.92446 6.85278C2.9197 6.85343 2.79161 6.90612 2.63978 6.96982ZM10.2572 7.25899L9.90347 7.34864V8.10078C9.90347 8.97277 9.84788 8.89123 10.3693 8.78395C10.5538 8.74599 10.7108 8.71494 10.7182 8.71494C10.7256 8.71494 10.7316 8.36556 10.7316 7.93853C10.7316 7.22072 10.7271 7.16241 10.6712 7.16572C10.6381 7.16772 10.4517 7.20968 10.2572 7.25899ZM8.73886 7.63739L8.38517 7.71935V8.44209V9.16484L8.46281 9.14669C8.50553 9.13671 8.66305 9.10566 8.81295 9.07771C8.96281 9.04976 9.09121 9.02108 9.09832 9.01401C9.1054 9.0069 9.10702 8.67581 9.10188 8.27825L9.09256 7.55544L8.73886 7.63739ZM3.8734 8.37287L3.55421 8.4766V9.09845C3.55421 9.67433 3.55866 9.71898 3.61459 9.70277C3.64782 9.69314 3.74486 9.66774 3.83026 9.64635C3.91567 9.62495 4.04379 9.59238 4.11494 9.57395L4.24434 9.54045V8.90338C4.24434 8.55303 4.23268 8.26697 4.21846 8.26773C4.20425 8.26849 4.04897 8.3158 3.8734 8.37287ZM2.6139 8.76977L2.34647 8.85586V9.43637V10.0169L2.63978 9.94549L2.93308 9.87406V9.27723C2.93308 8.949 2.92142 8.68116 2.9072 8.68205C2.89299 8.68295 2.761 8.72243 2.6139 8.76977ZM10.2227 9.70687L9.90347 9.75808V10.518V11.278L10.1709 11.2552C10.318 11.2427 10.5043 11.2233 10.585 11.2121L10.7316 11.1916V10.4191V9.64662L10.6367 9.65114C10.5846 9.65363 10.3982 9.67871 10.2227 9.70687ZM8.93728 9.90757C8.90881 9.91385 8.77296 9.93672 8.63534 9.95843L8.38517 9.99794V10.7022V11.4065H8.48348C8.53755 11.4065 8.7006 11.3964 8.8458 11.3841L9.10981 11.3619V10.625C9.10981 9.82985 9.11889 9.86761 8.93728 9.90757ZM4.05456 10.3371C3.99762 10.3529 3.86173 10.3836 3.75262 10.4055L3.55421 10.4452V11.0639C3.55421 11.4041 3.56287 11.6825 3.57346 11.6825C3.60849 11.6825 4.08755 11.6113 4.1667 11.5943C4.24383 11.5778 4.24434 11.5734 4.24434 10.94C4.24434 10.2534 4.25339 10.2821 4.05456 10.3371ZM2.59664 10.6381L2.34647 10.6902V11.2764V11.8626L2.42411 11.8437C2.46679 11.8333 2.59882 11.8141 2.71742 11.801L2.93308 11.7771V11.1777C2.93308 10.7191 2.92294 10.5792 2.88995 10.5822C2.86624 10.5843 2.73422 10.6095 2.59664 10.6381ZM0 17.0138V17.4452H8.45418H16.9084V17.0138V16.5825H8.45418H0V17.0138Z" fill="#1D1D1D"/>
</svg>
