<svg width="16" height="16" viewBox="0 0 16 16" fill="none" xmlns="http://www.w3.org/2000/svg">
<path d="M4.62 14.1598H7.7C7.7 15.0068 7.007 15.6998 6.16 15.6998C5.313 15.6998 4.62 15.0068 4.62 14.1598ZM7.7 5.6898C7.7 7.6995 8.9859 9.4089 10.78 10.048V11.8498H11.55C11.9735 11.8498 12.32 12.1963 12.32 12.6198C12.32 13.0433 11.9735 13.3898 11.55 13.3898H0.77C0.3465 13.3898 0 13.0433 0 12.6198C0 12.1963 0.3465 11.8498 0.77 11.8498H1.54V6.4598C1.54 4.3115 3.0107 2.502 5.005 1.9938V1.4548C5.005 0.815705 5.5209 0.299805 6.16 0.299805C6.7991 0.299805 7.315 0.815705 7.315 1.4548V1.9938C7.8617 2.1324 8.3622 2.3711 8.8165 2.6868C8.092 3.51901 7.69514 4.58643 7.7 5.6898ZM14.63 4.9198H13.09V3.3798C13.09 2.9563 12.7435 2.6098 12.32 2.6098C11.8965 2.6098 11.55 2.9563 11.55 3.3798V4.9198H10.01C9.5865 4.9198 9.24 5.2663 9.24 5.6898C9.24 6.1133 9.5865 6.4598 10.01 6.4598H11.55V7.9998C11.55 8.4233 11.8965 8.7698 12.32 8.7698C12.7435 8.7698 13.09 8.4233 13.09 7.9998V6.4598H14.63C15.0535 6.4598 15.4 6.1133 15.4 5.6898C15.4 5.2663 15.0535 4.9198 14.63 4.9198Z" fill="#1D1D1D"/>
</svg>
