<svg width="16" height="18" viewBox="0 0 16 18" fill="none" xmlns="http://www.w3.org/2000/svg">
<path d="M12.6365 8.67738C12.2768 8.31774 11.8498 8.03261 11.3797 7.83834C10.9097 7.64407 10.4059 7.54448 9.89734 7.54528C9.38875 7.54608 8.88531 7.64725 8.41588 7.843C7.94646 8.03874 7.52029 8.32522 7.16181 8.68599C6.8016 9.04505 6.51579 9.47167 6.32079 9.94139C6.12578 10.4111 6.02539 10.9147 6.02539 11.4233C6.02539 11.9319 6.12578 12.4355 6.32079 12.9052C6.51579 13.375 6.8016 13.8016 7.16181 14.1606C7.78259 14.7787 8.59417 15.1687 9.46463 15.2671C10.3351 15.3656 11.2133 15.1668 11.9564 14.7029L14.6335 17.3456L15.83 16.1491L13.1701 13.472C14.1428 11.9484 13.919 9.95136 12.6365 8.67738ZM11.4227 12.9383C10.5792 13.7819 9.2191 13.7733 8.37552 12.9383C7.54055 12.0947 7.54056 10.7347 8.38413 9.8911C9.2191 9.05613 10.5792 9.05613 11.4227 9.8911C12.2577 10.7347 12.2577 12.0947 11.4227 12.9383ZM5.93948 15.3744C5.37716 14.8072 4.94277 14.1263 4.6655 13.3773C1.954 12.9211 0 11.6385 0 10.1235V12.7059C0 14.6083 3.08164 16.1491 6.88635 16.1491C6.54203 15.9253 6.22354 15.667 5.93948 15.3744ZM0 5.81955V8.40193C0 9.84806 1.78184 11.0876 4.30397 11.5869V11.4147C4.30397 10.6142 4.47613 9.82224 4.80323 9.09917C2.01426 8.66017 0 7.36037 0 5.81955ZM6.88635 0.654785C3.08164 0.654785 0 2.19561 0 4.09796C0 5.81955 2.58238 7.26568 5.89644 7.54114H5.93948C6.97243 6.45654 8.40135 5.81955 9.89913 5.81955C10.6825 5.81955 11.4572 5.9831 12.1716 6.30159C12.6056 6.10318 12.981 5.79608 13.2615 5.41002C13.542 5.02396 13.7181 4.57202 13.7727 4.09796C13.7727 2.19561 10.6911 0.654785 6.88635 0.654785Z" fill="black"/>
</svg>
