<svg width="16" height="16" viewBox="0 0 16 16" fill="none" xmlns="http://www.w3.org/2000/svg">
<path d="M7.91461 13.1062L4.07789 15.4175C3.9084 15.5253 3.7312 15.5716 3.5463 15.5561C3.3614 15.5407 3.19961 15.4791 3.06093 15.3712C2.92226 15.2634 2.8144 15.1287 2.73736 14.9672C2.66031 14.8058 2.6449 14.6246 2.69113 14.4236L3.70809 10.0553L0.31052 7.12001C0.156435 6.98133 0.0602864 6.82324 0.0220734 6.64573C-0.0161396 6.46823 -0.00473743 6.29504 0.0562802 6.12616C0.117298 5.95728 0.209749 5.81861 0.333633 5.71013C0.457517 5.60165 0.62701 5.53232 0.842113 5.50212L5.32598 5.1092L7.05943 0.995135C7.13648 0.810233 7.25605 0.671557 7.41814 0.579106C7.58024 0.486655 7.74573 0.44043 7.91461 0.44043C8.08348 0.44043 8.24897 0.486655 8.41107 0.579106C8.57316 0.671557 8.69273 0.810233 8.76978 0.995135L10.5032 5.1092L14.9871 5.50212C15.2028 5.53293 15.3723 5.60227 15.4956 5.71013C15.6188 5.81799 15.7113 5.95667 15.7729 6.12616C15.8346 6.29565 15.8463 6.46915 15.8081 6.64666C15.7698 6.82416 15.6734 6.98195 15.5187 7.12001L12.1211 10.0553L13.1381 14.4236C13.1843 14.6239 13.1689 14.8051 13.0919 14.9672C13.0148 15.1293 12.907 15.264 12.7683 15.3712C12.6296 15.4785 12.4678 15.5401 12.2829 15.5561C12.098 15.5722 11.9208 15.5259 11.7513 15.4175L7.91461 13.1062Z" fill="#1D1D1D"/>
</svg>
