<svg width="16" height="16" viewBox="0 0 16 16" fill="none" xmlns="http://www.w3.org/2000/svg">
<path fill-rule="evenodd" clip-rule="evenodd" d="M4.84405 0.26215C4.3864 0.321089 3.98432 0.65885 3.83093 1.11313C3.77084 1.29115 3.76778 1.29421 3.5982 1.34669C3.1399 1.48848 2.81266 1.8414 2.71567 2.29846C2.69466 2.3975 2.68089 2.80438 2.68089 3.32582V4.18921L2.60286 4.30421C2.41197 4.58551 2.38697 5.00785 2.54244 5.3256C2.63956 5.5241 2.91167 5.77975 3.08858 5.83872L3.21886 5.88213L3.25583 6.10161C3.32003 6.48253 3.48617 6.89161 3.71169 7.22398C3.83659 7.40807 4.20622 7.79023 4.39027 7.92559C4.53172 8.02964 4.53723 8.03947 4.53723 8.189C4.53723 8.34113 4.53163 8.35044 4.26816 8.63746C4.12017 8.79869 3.94552 8.95793 3.88 8.99134C3.8145 9.02476 3.25803 9.18468 2.64342 9.34674C2.02882 9.50877 1.45682 9.67639 1.3723 9.71921C1.16606 9.82373 0.946359 10.0495 0.847416 10.2587C0.786837 10.3868 0.670135 10.9114 0.386517 12.3309C-0.048454 14.508 -0.0660274 14.6653 0.0886367 14.9975C0.201719 15.2404 0.449355 15.4946 0.686904 15.6115C0.927641 15.73 1.15653 15.7608 1.80687 15.7621C2.20409 15.7629 2.30962 15.7545 2.30962 15.7222C2.30962 15.6996 2.19128 14.6968 2.04664 13.4937C1.902 12.2905 1.78397 11.2474 1.78434 11.1755C1.78567 10.9211 1.97545 10.6319 2.23228 10.4931L2.35603 10.4262L6.03217 10.4178C8.49105 10.4122 9.74767 10.42 9.82709 10.4415C10.1825 10.5371 10.4163 10.8432 10.4148 11.2109C10.4144 11.3238 10.2974 12.3838 10.1548 13.5665C10.0122 14.7491 9.90205 15.7272 9.90994 15.7399C9.93086 15.7738 10.89 15.7671 11.1373 15.7314C11.626 15.6607 12.0038 15.3472 12.1591 14.8836C12.2514 14.6079 12.2269 14.4003 11.9161 12.819C11.4484 10.4407 11.4428 10.4156 11.3363 10.2157C11.229 10.0143 11.0071 9.79823 10.8094 9.70251C10.7374 9.66764 10.226 9.52 9.67301 9.37443C9.12004 9.22886 8.59101 9.08781 8.49742 9.06102C8.34858 9.01835 8.28562 8.97123 7.99467 8.68455L7.66207 8.35681L7.6626 8.20036L7.66312 8.04387L7.90927 7.85146C8.46744 7.41516 8.82764 6.78419 8.97707 5.98095C8.98905 5.91666 9.02985 5.88101 9.15949 5.82167C9.3661 5.72709 9.5522 5.54471 9.66116 5.33002C9.81345 5.02997 9.79287 4.57313 9.61581 4.32311L9.53388 4.20743L9.51495 3.41849C9.49323 2.51302 9.46037 2.33664 9.224 1.85597C8.77875 0.950605 7.89956 0.353297 6.87925 0.262955C6.49019 0.22852 5.10929 0.227963 4.84405 0.26215ZM4.46319 2.89546C4.31156 3.01473 4.1944 3.34002 4.08614 3.94238C4.0117 4.35668 3.91944 4.43338 3.60182 4.34517C3.38844 4.28589 3.11416 4.41546 3.00464 4.62724C2.94638 4.73989 2.94638 5.00535 3.00464 5.118C3.06389 5.23253 3.22118 5.36331 3.32526 5.38454C3.54715 5.4298 3.64183 5.46792 3.6719 5.52413C3.69 5.55798 3.71849 5.7059 3.73517 5.85286C3.79878 6.41248 4.01968 6.86642 4.42628 7.27305C4.83115 7.67792 5.28893 7.90145 5.84017 7.96343C7.17194 8.1132 8.35347 7.13967 8.48369 5.78532C8.50797 5.53273 8.57208 5.4402 8.74215 5.4122C8.92726 5.38172 9.01772 5.33497 9.12802 5.21292C9.47312 4.83094 9.10643 4.23401 8.59708 4.34854C8.43917 4.38406 8.33617 4.36299 8.26093 4.27986C8.21702 4.23135 8.20344 4.15319 8.19546 3.90364C8.18256 3.50013 8.17591 3.473 8.05657 3.33709C7.90606 3.16565 7.81383 3.14007 7.34594 3.13991C6.57178 3.13966 5.67467 3.05003 5.00658 2.90614C4.58095 2.81446 4.5665 2.81419 4.46319 2.89546ZM11.539 5.89286C11.449 5.93052 11.3852 6.0328 11.3248 6.23638C11.2975 6.32864 11.2472 6.47879 11.2131 6.57009C11.1546 6.72655 11.1398 6.74118 10.9542 6.82533C10.8459 6.87443 10.727 6.91459 10.69 6.91459C10.653 6.91459 10.4864 6.84498 10.3199 6.7599C9.86514 6.52758 9.86589 6.52742 9.42216 6.96567C9.17787 7.20697 9.05058 7.35622 9.03722 7.41704C9.02138 7.48916 9.05414 7.58396 9.19572 7.87556L9.3742 8.24314L9.28894 8.46046C9.24206 8.57998 9.18839 8.68721 9.16967 8.69878C9.14328 8.71512 9.97529 8.94985 10.6682 9.1216C10.7426 9.14007 10.7571 9.12837 10.8191 9.00035C10.9319 8.76744 11.197 8.50724 11.448 8.38321C12.2922 7.96599 13.2976 8.48218 13.4536 9.41292C13.5678 10.0941 13.1519 10.7635 12.4857 10.9709C12.3822 11.0031 12.2499 11.0295 12.1919 11.0295C12.1286 11.0295 12.0859 11.045 12.0854 11.0682C12.0822 11.1929 12.5352 13.3808 12.5642 13.3808C12.6655 13.3808 12.7367 13.2708 12.8442 12.9482C12.9065 12.7613 12.9807 12.5808 13.0092 12.5473C13.0692 12.4764 13.3527 12.3599 13.4648 12.3599C13.5071 12.3599 13.6803 12.4295 13.8499 12.5146C14.2966 12.7387 14.2856 12.7414 14.7203 12.3057C14.9444 12.0812 15.0915 11.9085 15.1049 11.8539C15.1223 11.7832 15.0912 11.6926 14.948 11.3977L14.7693 11.0297L14.8373 10.8517C14.9486 10.5602 14.9593 10.5511 15.3414 10.4262C15.8429 10.2624 15.83 10.2831 15.83 9.63967C15.83 8.99298 15.834 9.00041 15.4074 8.86375C14.9656 8.72224 14.9515 8.71206 14.8537 8.46287L14.7687 8.24605L14.947 7.87884C15.0901 7.58411 15.1213 7.49328 15.1049 7.41887C15.0911 7.35575 14.968 7.21102 14.7196 6.96567C14.2753 6.52687 14.2734 6.5264 13.8284 6.7599C13.6663 6.84498 13.5 6.91459 13.459 6.91459C13.418 6.91459 13.2965 6.87474 13.189 6.82601C12.973 6.72806 12.9608 6.70922 12.8311 6.27292C12.7945 6.14972 12.7316 6.01049 12.6912 5.96353L12.6178 5.87814L12.1123 5.8713C11.8343 5.86756 11.5763 5.87724 11.539 5.89286ZM5.04367 8.55049C5.08396 9.03351 5.26851 9.33508 5.63393 9.51495C6.03731 9.71355 6.48159 9.65468 6.80416 9.35986C7.03123 9.15235 7.1379 8.91393 7.15962 8.56547C7.1685 8.42321 7.16705 8.30685 7.1564 8.30685C7.14576 8.30685 7.01501 8.34401 6.86586 8.38946C6.62246 8.46359 6.54558 8.47209 6.11512 8.47256C5.62904 8.47308 5.63328 8.4737 5.09701 8.31864L5.02254 8.2971L5.04367 8.55049ZM2.42991 10.9519C2.2462 11.0522 2.24314 10.9821 2.53941 13.454C2.68857 14.6985 2.81705 15.7272 2.82491 15.7399C2.8328 15.7527 4.28483 15.7631 6.05163 15.7631C9.12948 15.7631 9.267 15.7608 9.33463 15.706C9.40177 15.6516 9.41777 15.5446 9.66209 13.5171C9.80336 12.3446 9.91932 11.3199 9.91978 11.2401C9.9204 11.1303 9.90236 11.0736 9.84596 11.008L9.77128 10.9212L6.14102 10.9145C3.04675 10.9088 2.49879 10.9143 2.42991 10.9519ZM5.96157 12.7985C5.71493 12.8691 5.55822 13.0774 5.55822 13.3347C5.55822 13.7404 5.99511 14.0015 6.36127 13.8147C6.4272 13.781 6.50876 13.7148 6.54245 13.6674C6.61144 13.5706 6.67945 13.3474 6.65943 13.2836C6.65219 13.2605 6.63814 13.2044 6.62821 13.1589C6.60572 13.0558 6.47438 12.8969 6.36669 12.8424C6.24621 12.7815 6.08276 12.7638 5.96157 12.7985Z" fill="black"/>
</svg>
