<svg width="16" height="18" viewBox="0 0 16 18" fill="none" xmlns="http://www.w3.org/2000/svg">
<path fill-rule="evenodd" clip-rule="evenodd" d="M1.07605 0.522379C1.66917 0.650049 2.10618 1.00323 2.32171 1.52898L2.40437 1.73066L2.42335 8.68848L2.44233 15.6463L2.56628 15.757C2.78591 15.9533 2.90208 15.9235 3.52662 15.5107L4.06694 15.1537L4.60172 15.5107C5.03437 15.7996 5.16314 15.8678 5.2759 15.8678C5.38824 15.8678 5.51993 15.7986 5.95554 15.5107L6.49587 15.1537L7.03065 15.5107C7.649 15.9236 7.71993 15.9407 8.02332 15.7496C8.12655 15.6846 8.21559 15.6273 8.2212 15.6224C8.22678 15.6175 8.20348 15.5047 8.16944 15.3718C8.02977 14.8267 8.16067 14.5286 8.84608 13.8306C9.3732 13.2938 9.54083 13.1683 9.82498 13.0974C9.97998 13.0588 10.0015 13.0395 10.0451 12.8998C10.1954 12.418 10.7216 12.0633 11.5279 11.9002C11.8406 11.8369 12.4332 11.8393 12.8317 11.9054L12.974 11.9291V6.9702C12.974 1.42788 12.986 1.68974 12.7121 1.26757C12.4678 0.890969 12.155 0.6595 11.7406 0.548793C11.5863 0.507578 10.5657 0.498849 6.27548 0.502074C3.37405 0.504238 1.03431 0.513384 1.07605 0.522379ZM0.567762 1.34932C0.333408 1.42514 0.11803 1.64747 0.0490717 1.88467C0.000986446 2.05006 -0.00542735 2.69096 0.00330161 6.46103L0.0133968 10.8451L0.127822 11.0302C0.211165 11.165 0.297505 11.2442 0.445291 11.3214C0.63691 11.4214 0.675659 11.4274 1.13731 11.4274H1.62636V6.68772V1.94805L1.52032 1.74508C1.33625 1.39273 0.94102 1.22851 0.567762 1.34932ZM7.48277 3.00023C7.34637 3.08338 7.28178 3.25576 7.28144 3.53744L7.28121 3.71228L6.98344 3.7327C6.55906 3.76177 6.33245 3.89089 6.16743 4.19754C6.0935 4.33485 6.08572 4.4073 6.08572 4.95658C6.08572 5.55356 6.0875 5.56685 6.19217 5.74492C6.25073 5.84454 6.36899 5.97263 6.45496 6.02956L6.61128 6.13309L7.55348 6.14444L8.49567 6.15579V6.5714V6.98701H7.41617C6.35089 6.98701 6.33537 6.98815 6.23897 7.0724C6.03612 7.24975 6.05077 7.57728 6.26743 7.70939C6.37017 7.77205 6.45947 7.78374 6.83527 7.78385L7.28121 7.784L7.28144 7.96428C7.28189 8.36664 7.42691 8.581 7.69868 8.581C7.9692 8.581 8.11547 8.36649 8.11592 7.96902L8.11615 7.79353L8.42926 7.77645C8.7736 7.7577 8.90962 7.70423 9.09486 7.51473C9.27931 7.32611 9.31164 7.18508 9.31164 6.56954C9.31164 5.954 9.27931 5.81297 9.09486 5.62434C8.85588 5.3799 8.83322 5.37523 7.82202 5.36213L6.90169 5.35018V4.95631V4.56241L7.98264 4.55076L9.06362 4.53911L9.18332 4.41933C9.35267 4.24991 9.35263 4.03127 9.18329 3.86189C9.06355 3.74211 9.06347 3.74211 8.58983 3.72872L8.11615 3.71532L8.11592 3.53896C8.11547 3.15439 7.96017 2.92641 7.69868 2.92641C7.6465 2.92641 7.54934 2.95962 7.48277 3.00023ZM4.39685 9.82021C4.24254 9.87102 4.16728 9.93148 4.1113 10.0494C4.03589 10.2084 4.06398 10.3631 4.19146 10.4906C4.30896 10.6081 4.45769 10.6377 4.61011 10.574C4.76548 10.5091 4.85228 10.3797 4.85228 10.2129C4.85228 10.0435 4.76507 9.91657 4.60183 9.84837C4.53219 9.81926 4.47037 9.79683 4.46449 9.79846C4.4586 9.80009 4.42817 9.80988 4.39685 9.82021ZM5.96477 9.83728C5.58585 9.94693 5.59891 10.4843 5.98306 10.5909C6.17813 10.6451 10.8546 10.6441 11.0499 10.5899C11.2095 10.5456 11.3418 10.3747 11.3418 10.2129C11.3418 10.0512 11.2095 9.88025 11.0499 9.83595C10.8679 9.7854 6.1398 9.78666 5.96477 9.83728ZM4.21279 11.9408C4.06971 12.0612 4.03381 12.2133 4.10709 12.3887C4.2775 12.7966 4.84917 12.6754 4.85144 12.231C4.85319 11.8896 4.47682 11.7186 4.21279 11.9408ZM5.804 11.9616C5.64411 12.1215 5.64183 12.3242 5.79793 12.4989L5.90864 12.6229L7.45833 12.6329C8.94495 12.6425 9.013 12.6399 9.12993 12.568C9.34656 12.4346 9.36117 12.1075 9.15839 11.9303L9.0607 11.8449H7.49074H5.92078L5.804 11.9616ZM11.5351 12.7197C11.1188 12.8287 10.8802 12.9749 10.8141 13.1613C10.7655 13.2984 10.7672 13.3261 10.8331 13.4603C10.8854 13.5669 10.9454 13.6231 11.0482 13.6616C11.1824 13.7119 11.208 13.7082 11.4847 13.5994C12.0082 13.3934 12.4209 13.4019 12.8825 13.628C13.2869 13.8261 13.6556 14.3042 13.7226 14.7176L13.7458 14.8606L13.6227 14.7569C13.4447 14.6072 13.2697 14.6157 13.103 14.7824C12.9973 14.8881 12.974 14.9401 12.974 15.0706C12.974 15.2235 12.9933 15.2494 13.4554 15.7202C14.0003 16.2751 14.1161 16.3412 14.35 16.2301C14.5284 16.1455 15.3535 15.3004 15.3867 15.1684C15.4829 14.785 15.0379 14.5265 14.7109 14.7759L14.5773 14.8778L14.552 14.6867C14.4301 13.7676 13.61 12.8945 12.6845 12.6984C12.3262 12.6225 11.8743 12.6309 11.5351 12.7197ZM9.95683 13.8979C9.83424 13.9681 9.0267 14.7767 8.96742 14.8886C8.85644 15.0982 8.94647 15.3447 9.16773 15.4371C9.32883 15.5044 9.44667 15.4814 9.62046 15.3489L9.74809 15.2516V15.3605C9.74809 15.5152 9.87219 15.9295 9.98555 16.1532C10.4105 16.9918 11.2354 17.4982 12.177 17.4985C12.6556 17.4987 13.2309 17.3191 13.4236 17.1095C13.599 16.9188 13.5274 16.6061 13.2816 16.4893C13.1476 16.4256 13.1385 16.4266 12.8412 16.5324C12.4354 16.6769 12.2469 16.7035 11.9303 16.661C11.5972 16.6163 11.3252 16.4854 11.0583 16.2415C10.8337 16.0363 10.6357 15.6891 10.5956 15.4304L10.5723 15.2795L10.6649 15.3643C10.7933 15.482 10.9636 15.5093 11.1068 15.4352C11.2681 15.3518 11.3421 15.2325 11.3421 15.0556C11.3421 14.9138 11.3142 14.8775 10.8377 14.3974C10.388 13.9442 10.3171 13.8873 10.1831 13.8718C10.1004 13.8623 9.99857 13.874 9.95683 13.8979Z" fill="black"/>
</svg>
