<svg width="16" height="16" viewBox="0 0 16 16" fill="none" xmlns="http://www.w3.org/2000/svg">
<path fill-rule="evenodd" clip-rule="evenodd" d="M1.63324 0.535207C0.867024 0.722344 0.196023 1.41213 0.0393708 2.17365C0.012028 2.30664 0 3.96635 0 7.61295C0 12.7401 0.00166158 12.8674 0.0721316 13.1429C0.252081 13.8465 0.765779 14.3982 1.46004 14.6337L1.75182 14.7326L4.54736 14.7429L7.34287 14.7532L7.24036 14.6188C6.73204 13.9524 6.35058 13.057 6.23279 12.2538C5.92183 10.1331 6.9009 8.07554 8.74121 6.98226C9.28439 6.65956 10.1292 6.3718 10.6925 6.31762C10.8211 6.30526 10.9796 6.28695 11.0448 6.27695L11.1633 6.25878L11.1532 4.19275C11.1432 2.15363 11.142 2.12394 11.0622 1.91246C10.8266 1.28816 10.3607 0.822397 9.7481 0.598669L9.48149 0.501326L5.65278 0.494969C2.63109 0.489948 1.78382 0.498437 1.63324 0.535207ZM2.75939 3.5872C2.59154 3.62794 2.46616 3.73403 2.38002 3.90813C2.24713 4.17668 2.32865 4.44317 2.60028 4.62803L2.71969 4.7093H5.57194C8.41018 4.7093 8.42484 4.70894 8.56029 4.6328C8.63517 4.59072 8.73273 4.49164 8.77715 4.41261C8.92705 4.1459 8.82046 3.78293 8.54855 3.63419C8.44294 3.5764 8.21773 3.57109 5.65278 3.56574C4.1231 3.56257 2.82108 3.57225 2.75939 3.5872ZM2.75939 5.89888C2.59154 5.93962 2.46616 6.04571 2.38002 6.2198C2.24713 6.48836 2.32865 6.75485 2.60028 6.93971L2.71969 7.02098H5.57194C8.41018 7.02098 8.42484 7.02062 8.56029 6.94448C8.63517 6.9024 8.73273 6.80332 8.77715 6.72429C8.92705 6.45758 8.82046 6.09461 8.54855 5.94587C8.44294 5.88808 8.21773 5.88277 5.65278 5.87742C4.1231 5.87424 2.82108 5.88392 2.75939 5.89888ZM10.6735 7.47591C10.0622 7.58406 9.38209 7.88508 8.88551 8.26723C8.62039 8.47127 8.20787 8.90951 8.01863 9.18818C7.79772 9.51351 7.56634 10.0223 7.45108 10.4364C7.35843 10.7693 7.35114 10.8443 7.35114 11.4637C7.35114 12.0832 7.35843 12.1582 7.45108 12.4911C7.64017 13.1704 7.97251 13.7582 8.45002 14.2581C10.0185 15.9002 12.6427 15.9251 14.2235 14.313C14.8206 13.7041 15.1489 13.0969 15.3376 12.2525C15.4264 11.8551 15.4193 11.0347 15.3233 10.6128C14.8388 8.48352 12.7901 7.10138 10.6735 7.47591ZM2.76242 8.20933C2.5846 8.25368 2.46465 8.35319 2.38128 8.52545C2.2476 8.80159 2.32721 9.06555 2.60028 9.25139C2.71875 9.33201 2.73006 9.33266 4.04544 9.33266C5.36082 9.33266 5.37212 9.33201 5.4906 9.25139C5.65848 9.13714 5.74513 9.00725 5.76822 8.83536C5.79433 8.6406 5.68117 8.40622 5.50252 8.28518L5.36927 8.19488L4.12039 8.18849C3.43353 8.18498 2.82245 8.19434 2.76242 8.20933ZM11.1611 9.48158C11.0445 9.52807 10.9148 9.65001 10.8506 9.77332C10.7779 9.91307 10.7771 11.6283 10.8497 11.802C10.9976 12.156 11.4791 12.2366 11.7611 11.9545C11.941 11.7747 11.9629 11.6278 11.9495 10.6908C11.9382 9.89494 11.9338 9.85026 11.855 9.72351C11.7158 9.49964 11.3957 9.38803 11.1611 9.48158ZM11.1847 12.5639C10.9107 12.6616 10.7754 12.8831 10.8088 13.1794C10.8297 13.3649 10.9175 13.4922 11.0937 13.5924C11.4193 13.7775 11.8168 13.6075 11.9183 13.2396C11.9962 12.9574 11.7971 12.6249 11.5063 12.5516C11.3179 12.5042 11.3563 12.5027 11.1847 12.5639Z" fill="#1D1D1D"/>
</svg>
