<svg width="13" height="18" viewBox="0 0 13 18" fill="none" xmlns="http://www.w3.org/2000/svg">
<path fill-rule="evenodd" clip-rule="evenodd" d="M6.335 0.553223C5.2149 0.553223 4.14068 0.99818 3.34865 1.79021C2.55662 2.58224 2.11167 3.65646 2.11167 4.77656C2.11167 5.89665 2.55662 6.97088 3.34865 7.7629C4.14068 8.55493 5.2149 8.99989 6.335 8.99989C7.4551 8.99989 8.52932 8.55493 9.32135 7.7629C10.1134 6.97088 10.5583 5.89665 10.5583 4.77656C10.5583 3.65646 10.1134 2.58224 9.32135 1.79021C8.52932 0.99818 7.4551 0.553223 6.335 0.553223ZM4.22333 10.0557C3.10324 10.0557 2.02901 10.5007 1.23699 11.2927C0.444957 12.0847 0 13.159 0 14.2791V15.3349C0 15.8949 0.222478 16.432 0.618493 16.8281C1.01451 17.2241 1.55162 17.4466 2.11167 17.4466H10.5583C11.1184 17.4466 11.6555 17.2241 12.0515 16.8281C12.4475 16.432 12.67 15.8949 12.67 15.3349V14.2791C12.67 13.159 12.225 12.0847 11.433 11.2927C10.641 10.5007 9.56676 10.0557 8.44667 10.0557H4.22333Z" fill="#1D1D1D"/>
</svg>
