<svg width="20" height="20" viewBox="0 0 20 20" fill="none" xmlns="http://www.w3.org/2000/svg">
<path d="M17.4022 5.78836C16.7027 5.01474 15.534 4.62792 13.8386 4.62792H13.6411V4.595C13.6411 3.21235 13.6411 1.50049 10.5466 1.50049H9.29558C6.20107 1.50049 6.20107 3.22058 6.20107 4.595V4.63615H6.00354C4.29992 4.63615 3.13947 5.02297 2.43992 5.79659C1.62514 6.7019 1.64983 7.91996 1.73213 8.7512L1.74036 8.80881L1.80411 9.47815C1.81585 9.60141 1.88223 9.71275 1.98584 9.78055C2.1832 9.90971 2.51351 10.1226 2.71151 10.2326C2.82673 10.3067 2.95018 10.3725 3.07363 10.4384C4.48098 11.212 6.02824 11.7305 7.60018 11.9856C7.67425 12.7592 8.01169 13.6646 9.81408 13.6646C11.6165 13.6646 11.9704 12.7675 12.028 11.9692C13.7069 11.6976 15.3282 11.1132 16.7932 10.2573C16.8426 10.2326 16.8755 10.2079 16.9166 10.1832C17.2431 9.99869 17.5819 9.7713 17.8906 9.54857C17.9837 9.48146 18.0431 9.37771 18.0558 9.26372L18.0689 9.14624L18.11 8.75943C18.1182 8.71005 18.1182 8.6689 18.1265 8.61128C18.1923 7.78005 18.1758 6.64429 17.4022 5.78836ZM10.8181 11.426C10.8181 12.2984 10.8181 12.43 9.80585 12.43C8.79354 12.43 8.79355 12.2737 8.79355 11.4342V10.3972H10.8181V11.426ZM7.37797 4.62792V4.595C7.37797 3.19589 7.37797 2.67739 9.29558 2.67739H10.5466C12.4642 2.67739 12.4642 3.20412 12.4642 4.595V4.63615H7.37797V4.62792Z" fill="#8A1538"/>
<path d="M17.2229 11.3478C17.514 11.2093 17.8491 11.44 17.82 11.7609L17.5246 15.015C17.3518 16.661 16.6769 18.3399 13.0557 18.3399H6.78433C3.16309 18.3399 2.48822 16.661 2.31539 15.0232L2.03498 11.9387C2.00614 11.6215 2.33366 11.391 2.62389 11.5224C3.56164 11.9466 5.29254 12.6993 6.36177 12.9794C6.497 13.0148 6.60637 13.1116 6.66558 13.2382C7.16512 14.3066 8.24855 14.8751 9.813 14.8751C11.362 14.8751 12.4591 14.2847 12.9603 13.2137C13.0196 13.087 13.1291 12.9902 13.2644 12.9546C14.3998 12.6559 16.2422 11.8145 17.2229 11.3478Z" fill="#8A1538"/>
</svg>
