<svg width="323" height="311" viewBox="0 0 323 311" fill="none" xmlns="http://www.w3.org/2000/svg">
<path fill-rule="evenodd" clip-rule="evenodd" d="M235.01 74.0424C292.744 82.6469 310.206 149.423 321.577 206.669C328.636 242.206 308.645 274.498 278.952 295.265C251.168 314.697 217.535 315.674 187.106 300.718C109.92 262.781 -16.0832 243.132 1.69777 158.995C20.6155 69.4796 144.505 60.5537 235.01 74.0424Z" fill="#EAEAEA"/>
<g clip-path="url(#clip0_314_35221)">
<path d="M87.3708 186.742C88.755 199.795 99.8872 206.128 111.823 207.573C157.588 213.119 215.073 197.716 251.934 170.031C261.548 162.811 268.022 151.76 262.694 139.764C259.427 132.385 251.722 127.584 245.611 122.515C237.582 115.767 234.585 106.876 231.994 97.2426C222.034 60.0371 182.772 38.2138 144.291 48.5246C105.811 58.8354 82.7197 97.3663 92.6907 134.579C95.2703 144.206 97.1221 153.413 93.5313 163.264C90.7832 170.708 86.5198 178.716 87.3708 186.742ZM163.647 231.845C172.559 235.628 183.234 236.518 193.898 233.66C204.562 230.803 213.362 224.695 219.188 216.963" fill="white"/>
<path d="M163.647 231.845C172.559 235.628 183.234 236.518 193.898 233.66C204.562 230.803 213.362 224.695 219.188 216.963M87.3708 186.742C88.755 199.795 99.8872 206.128 111.823 207.573C157.588 213.119 215.073 197.716 251.934 170.031C261.548 162.811 268.022 151.76 262.694 139.764C259.427 132.385 251.722 127.584 245.611 122.515C237.582 115.767 234.585 106.876 231.994 97.2426C222.034 60.0371 182.772 38.2138 144.291 48.5246C105.811 58.8354 82.7197 97.3663 92.6907 134.579C95.2703 144.206 97.1221 153.413 93.5313 163.264C90.7832 170.708 86.5198 178.716 87.3708 186.742Z" stroke="black" stroke-width="4" stroke-linecap="round" stroke-linejoin="round"/>
<circle cx="127" cy="115" r="7" fill="black"/>
<circle cx="186" cy="98" r="7" fill="black"/>
<path d="M150 159.999C152.667 151.333 164 136.599 188 146.999" stroke="black" stroke-width="4" stroke-linecap="round"/>
<path d="M167 230C176.5 233.5 199.6 235.8 216 217L167 230Z" fill="#EAEAEA" stroke="#EAEAEA"/>
</g>
<g clip-path="url(#clip1_314_35221)">
<path d="M227.5 0C243.793 0 258 13.4505 258 28.975C258 44.2372 244.113 56.2481 227.5 56.2481C223.947 56.2505 220.415 55.6884 217.038 54.5828C215.623 55.9553 215.138 56.422 212.134 59.3195C209.969 60.9543 207.931 61.5094 206.11 60.4785C204.274 59.4415 203.722 57.4224 204.097 54.7628L205.317 47.6898C200.02 42.7061 197 36.1181 197 28.975C197 13.4505 211.204 0 227.5 0ZM227.5 4.27C213.513 4.27 201.27 15.86 201.27 28.975C201.27 35.2123 204.052 40.9554 208.956 45.2315L209.017 45.2834L209.923 46.0703L209.719 47.2598L209.298 49.712L209.185 50.3647L208.316 55.4216C208.266 55.7622 208.235 56.1053 208.224 56.4494V56.7392C208.224 56.7534 208.222 56.7615 208.218 56.7636C208.239 56.7331 208.654 56.6019 209.365 56.0834L215.983 49.6601L217.246 50.1359C220.526 51.3591 223.999 51.984 227.5 51.9812C241.884 51.9812 253.73 41.7332 253.73 28.975C253.73 15.8631 241.487 4.27 227.5 4.27ZM212.942 23.8297C213.557 23.8072 214.169 23.9088 214.744 24.1285C215.318 24.3481 215.842 24.6813 216.285 25.1081C216.727 25.5348 217.079 26.0464 217.32 26.6123C217.56 27.1782 217.684 27.7867 217.684 28.4016C217.684 29.0165 217.56 29.625 217.32 30.1909C217.079 30.7568 216.727 31.2684 216.285 31.6951C215.842 32.1219 215.318 32.4551 214.744 32.6747C214.169 32.8944 213.557 32.996 212.942 32.9736C211.759 32.9303 210.638 32.4297 209.816 31.577C208.994 30.7243 208.534 29.586 208.534 28.4016C208.534 27.2172 208.994 26.0789 209.816 25.2262C210.638 24.3735 211.759 23.8729 212.942 23.8297ZM228.186 23.8297C228.801 23.8072 229.413 23.9088 229.988 24.1285C230.562 24.3481 231.086 24.6813 231.529 25.1081C231.971 25.5348 232.323 26.0464 232.564 26.6123C232.804 27.1782 232.928 27.7867 232.928 28.4016C232.928 29.0165 232.804 29.625 232.564 30.1909C232.323 30.7568 231.971 31.2684 231.529 31.6951C231.086 32.1219 230.562 32.4551 229.988 32.6747C229.413 32.8944 228.801 32.996 228.186 32.9736C227.003 32.9303 225.882 32.4297 225.06 31.577C224.238 30.7243 223.778 29.586 223.778 28.4016C223.778 27.2172 224.238 26.0789 225.06 25.2262C225.882 24.3735 227.003 23.8729 228.186 23.8297ZM243.427 23.8297C244.042 23.8072 244.654 23.9088 245.229 24.1285C245.803 24.3481 246.327 24.6813 246.77 25.1081C247.212 25.5348 247.564 26.0464 247.805 26.6123C248.045 27.1782 248.169 27.7867 248.169 28.4016C248.169 29.0165 248.045 29.625 247.805 30.1909C247.564 30.7568 247.212 31.2684 246.77 31.6951C246.327 32.1219 245.803 32.4551 245.229 32.6747C244.654 32.8944 244.042 32.996 243.427 32.9736C242.243 32.9303 241.123 32.4297 240.301 31.577C239.478 30.7243 239.019 29.586 239.019 28.4016C239.019 27.2172 239.478 26.0789 240.301 25.2262C241.123 24.3735 242.243 23.8729 243.427 23.8297Z" fill="black"/>
</g>
<defs>
<clipPath id="clip0_314_35221">
<rect width="230" height="230" fill="white" transform="translate(28.248 59.7754) rotate(-15)"/>
</clipPath>
<clipPath id="clip1_314_35221">
<rect width="61" height="61" fill="white" transform="translate(197)"/>
</clipPath>
</defs>
</svg>
