<svg width="24" height="24" viewBox="0 0 24 24" fill="none" xmlns="http://www.w3.org/2000/svg">
<path d="M4.4 7.4L6.8 4H9.3L7.2 7H13.5C15.2239 7 16.8772 7.68482 18.0962 8.90381C19.3152 10.1228 20 11.7761 20 13.5C20 15.2239 19.3152 16.8772 18.0962 18.0962C16.8772 19.3152 15.2239 20 13.5 20H9L10 18H13.5C14.6935 18 15.8381 17.5259 16.682 16.682C17.5259 15.8381 18 14.6935 18 13.5C18 12.3065 17.5259 11.1619 16.682 10.318C15.8381 9.47411 14.6935 9 13.5 9H7.2L9.3 12H6.8L4.4 8.6L4 8L4.4 7.4Z" fill="black"/>
</svg>
