<svg width="21" height="20" viewBox="0 0 21 20" fill="none" xmlns="http://www.w3.org/2000/svg">
<path d="M10.13 2.05312L8.14657 6.6702H6.16312C5.83391 6.6702 5.51294 6.69489 5.2002 6.76073L6.0232 4.78551L6.05612 4.71144L6.10551 4.57976C6.1302 4.52215 6.14666 4.47277 6.17135 4.43162C7.12604 2.21773 8.19595 1.5264 10.13 2.05312Z" fill="#56A67C"/>
<path d="M15.7181 6.89226L15.7016 6.88403C15.2078 6.74412 14.7058 6.67005 14.1955 6.67005H9.04346L10.8952 2.36572L10.9199 2.30811C11.0351 2.34926 11.1586 2.40687 11.282 2.44802L13.1009 3.21342C14.1132 3.63315 14.821 4.06934 15.2572 4.59607C15.3312 4.69483 15.3971 4.78536 15.4629 4.89235C15.537 5.00757 15.5946 5.1228 15.6275 5.24625C15.6604 5.32032 15.6851 5.38616 15.7016 5.46023C15.825 5.87996 15.8333 6.35731 15.7181 6.89226Z" fill="#56A67C"/>
<path d="M10.6074 14.7689H10.8132C11.0601 14.7689 11.2658 14.5467 11.2658 14.2751C11.2658 13.9294 11.1671 13.8801 10.9531 13.7978L10.6074 13.6743V14.7689Z" fill="#56A67C"/>
<path d="M15.3568 8.06939C14.9864 7.9624 14.5996 7.90479 14.1963 7.90479H6.16374C5.6041 7.90479 5.07737 8.01178 4.58357 8.22576C3.15153 8.84302 2.14746 10.2668 2.14746 11.9211V13.5259C2.14746 13.7235 2.16392 13.9128 2.18861 14.1103C2.36967 16.7274 3.76879 18.1266 6.38596 18.2994C6.57525 18.3241 6.76454 18.3405 6.97029 18.3405H13.3898C16.4349 18.3405 18.0398 16.892 18.1961 14.0115C18.2044 13.8551 18.2126 13.6905 18.2126 13.5259V11.9211C18.2126 10.1022 17.0028 8.57142 15.3568 8.06939ZM11.2335 12.991C11.6121 13.1227 12.1223 13.4025 12.1223 14.2749C12.1223 15.0238 11.538 15.6246 10.8137 15.6246H10.608V15.8057C10.608 16.0443 10.4187 16.2336 10.18 16.2336C9.94136 16.2336 9.75206 16.0443 9.75206 15.8057V15.6246H9.67799C8.8879 15.6246 8.23773 14.958 8.23773 14.135C8.23773 13.8963 8.42702 13.707 8.66569 13.707C8.90436 13.707 9.09366 13.8963 9.09366 14.135C9.09366 14.4806 9.35702 14.7687 9.67799 14.7687H9.75206V13.3778L9.12658 13.1556C8.74799 13.0239 8.23773 12.7441 8.23773 11.8717C8.23773 11.1228 8.82206 10.522 9.54631 10.522H9.75206V10.3409C9.75206 10.1022 9.94136 9.91293 10.18 9.91293C10.4187 9.91293 10.608 10.1022 10.608 10.3409V10.522H10.6821C11.4722 10.522 12.1223 11.1886 12.1223 12.0116C12.1223 12.2503 11.933 12.4396 11.6944 12.4396C11.4557 12.4396 11.2664 12.2503 11.2664 12.0116C11.2664 11.6659 11.003 11.3779 10.6821 11.3779H10.608V12.7688L11.2335 12.991Z" fill="#56A67C"/>
<path d="M9.09326 11.8722C9.09326 12.2179 9.19202 12.2673 9.40601 12.3496L9.75167 12.473V11.3784H9.54592C9.29078 11.3784 9.09326 11.6006 9.09326 11.8722Z" fill="#56A67C"/>
</svg>
