<svg width="28" height="28" viewBox="0 0 28 28" fill="none" xmlns="http://www.w3.org/2000/svg">
<path d="M9.91667 18.0833C14.427 18.0833 18.0833 14.427 18.0833 9.91667C18.0833 5.40634 14.427 1.75 9.91667 1.75C5.40634 1.75 1.75 5.40634 1.75 9.91667C1.75 14.427 5.40634 18.0833 9.91667 18.0833Z" fill="#00ACC1"/>
<path d="M9.91667 16.3333C13.4605 16.3333 16.3333 13.4605 16.3333 9.91667C16.3333 6.37284 13.4605 3.5 9.91667 3.5C6.37284 3.5 3.5 6.37284 3.5 9.91667C3.5 13.4605 6.37284 16.3333 9.91667 16.3333Z" fill="#EEEEEE"/>
<path d="M9.3335 4.6665H10.5002V9.9165H9.3335V4.6665Z" fill="black"/>
<path d="M13.2155 12.223L12.2256 13.2129L9.4209 10.4089L10.4108 9.41895L13.2155 12.223Z" fill="black"/>
<path d="M9.91667 11.0833C10.561 11.0833 11.0833 10.561 11.0833 9.91667C11.0833 9.27233 10.561 8.75 9.91667 8.75C9.27233 8.75 8.75 9.27233 8.75 9.91667C8.75 10.561 9.27233 11.0833 9.91667 11.0833Z" fill="black"/>
<path d="M9.91683 10.5002C10.239 10.5002 10.5002 10.239 10.5002 9.91683C10.5002 9.59466 10.239 9.3335 9.91683 9.3335C9.59466 9.3335 9.3335 9.59466 9.3335 9.91683C9.3335 10.239 9.59466 10.5002 9.91683 10.5002Z" fill="#00ACC1"/>
<path d="M6.94145 24.5001L15.3414 10.4418C15.8081 9.68346 16.9164 9.68346 17.3248 10.4418L25.7248 24.5001C26.1914 25.2585 25.6081 26.2501 24.7331 26.2501H7.93311C7.05811 26.2501 6.47478 25.2585 6.94145 24.5001Z" fill="#FFC107"/>
<path d="M15.3999 23.275C15.3999 23.1583 15.3999 23.0417 15.4582 22.925C15.5166 22.8083 15.5749 22.75 15.6332 22.6333C15.6916 22.5167 15.8082 22.5167 15.9249 22.4583C16.0416 22.4 16.1582 22.4 16.2749 22.4C16.3916 22.4 16.5666 22.4 16.6832 22.4583C16.7999 22.5167 16.9166 22.575 16.9749 22.6333C17.0332 22.6917 17.0916 22.8083 17.1499 22.925C17.2082 23.0417 17.2082 23.1583 17.2082 23.275C17.2082 23.3917 17.2082 23.5083 17.1499 23.625C17.0916 23.7417 17.0332 23.8 16.9749 23.9167C16.9166 24.0333 16.7999 24.0333 16.6832 24.0917C16.5666 24.15 16.4499 24.15 16.2749 24.15C16.0999 24.15 15.9832 24.15 15.9249 24.0917C15.8666 24.0333 15.6916 23.975 15.6332 23.9167C15.5749 23.8583 15.5166 23.7417 15.4582 23.625C15.3999 23.5083 15.3999 23.3917 15.3999 23.275ZM17.0332 21.4667H15.6916L15.4582 15.75H17.2082L17.0332 21.4667Z" fill="#263238"/>
</svg>
