<svg width="21" height="21" viewBox="0 0 21 21" fill="none" xmlns="http://www.w3.org/2000/svg">
<path fill-rule="evenodd" clip-rule="evenodd" d="M13.4659 16.6864V19.9525H5.08853V14.6808C4.28971 13.9682 3.65228 13.0931 3.21889 12.1143C2.7855 11.1354 2.56614 10.0752 2.57548 9.00477C2.61232 3.94919 7.69736 0.521779 12.5909 1.80532C13.5172 2.05109 14.3709 2.51606 15.0798 3.16102C15.7887 3.80598 16.3321 4.61199 16.6641 5.51105C16.7631 5.72932 16.814 5.96635 16.8131 6.20603V7.98972C16.8131 7.98972 18.0148 10.2408 18.8375 12.072C18.8946 12.1994 18.9189 12.3391 18.9082 12.4783C18.8975 12.6176 18.8521 12.7519 18.7762 12.8691C18.7002 12.9863 18.5962 13.0826 18.4735 13.1492C18.3508 13.2159 18.2134 13.2508 18.0737 13.2508H16.8164V15.5976C16.8165 15.7406 16.7884 15.8823 16.7337 16.0144C16.6791 16.1465 16.5989 16.2666 16.4978 16.3677C16.3966 16.4688 16.2766 16.549 16.1444 16.6037C16.0123 16.6584 15.8707 16.6865 15.7277 16.6864H13.4659ZM10.905 4.88329C10.905 4.54422 10.6298 4.26903 10.2908 4.26903H9.53393C9.19486 4.26903 8.91968 4.54422 8.91968 4.88329C8.91981 5.1384 9.07604 5.35615 9.29761 5.44872V6.03954C8.95582 6.11365 8.63716 6.24872 8.35229 6.43212L7.93432 6.01415C8.026 5.79185 7.98301 5.5269 7.80249 5.34618C7.56273 5.10643 7.17311 5.10643 6.93335 5.34618L6.39819 5.88134C6.15854 6.12102 6.15869 6.50973 6.39819 6.7495C6.57883 6.93014 6.84382 6.97387 7.06616 6.88232L7.48413 7.30028C7.30081 7.5851 7.1666 7.90389 7.09253 8.2456H6.50171C6.40938 8.02335 6.19096 7.86672 5.9353 7.86669C5.59623 7.86669 5.32104 8.14188 5.32104 8.48095V9.23876C5.32109 9.57779 5.59626 9.85302 5.9353 9.85302C6.19128 9.85299 6.41056 9.69584 6.50268 9.47314H7.09253C7.16648 9.81461 7.30108 10.1328 7.48413 10.4175L7.06616 10.8354C6.84395 10.7442 6.57868 10.7888 6.39819 10.9692C6.15854 11.2089 6.15874 11.5976 6.39819 11.8374L6.93335 12.3735C7.17311 12.6133 7.56273 12.6133 7.80249 12.3735C7.98344 12.1925 8.02755 11.9262 7.9353 11.7036L8.35229 11.2856C8.63725 11.4692 8.95566 11.604 9.29761 11.6782V12.269C9.07568 12.3615 8.91968 12.581 8.91968 12.8364C8.9198 13.1754 9.19494 13.4497 9.53393 13.4497H10.2908C10.6298 13.4497 10.9049 13.1754 10.905 12.8364C10.905 12.5806 10.7486 12.3603 10.5261 12.2681V11.6782C10.8676 11.6041 11.1858 11.4698 11.4705 11.2866L11.8874 11.7036C11.7954 11.9261 11.8413 12.1926 12.0222 12.3735C12.262 12.6129 12.6508 12.6131 12.8904 12.3735L13.4255 11.8374C13.665 11.5976 13.6652 11.2089 13.4255 10.9692C13.2448 10.7886 12.979 10.7437 12.7566 10.8354L12.3386 10.4175C12.5219 10.1326 12.6582 9.81488 12.7322 9.47314H13.321C13.4132 9.69584 13.6324 9.85301 13.8884 9.85302C14.2275 9.85302 14.5026 9.57779 14.5027 9.23876V8.48095C14.5027 8.14188 14.2275 7.86669 13.8884 7.86669C13.6328 7.8667 13.4144 8.02334 13.322 8.2456H12.7312C12.6571 7.9037 12.5221 7.58522 12.3386 7.30028L12.7566 6.88232C12.9791 6.97437 13.2446 6.93039 13.4255 6.7495C13.6651 6.50973 13.6652 6.12103 13.4255 5.88134L12.8904 5.34618C12.6507 5.10649 12.262 5.10663 12.0222 5.34618C11.8416 5.5268 11.7969 5.79183 11.8884 6.01415L11.4705 6.43212C11.1858 6.24896 10.8676 6.11357 10.5261 6.03954V5.4497C10.7483 5.35739 10.9049 5.13882 10.905 4.88329ZM8.25366 8.85985C8.25366 7.94394 8.99596 7.20169 9.91186 7.20165C10.8278 7.20165 11.5701 7.94392 11.5701 8.85985C11.57 9.77571 10.8277 10.5181 9.91186 10.5181C8.99602 10.518 8.25376 9.77569 8.25366 8.85985Z" fill="#FF8E26"/>
</svg>
