<svg width="182" height="40" viewBox="0 0 182 40" fill="none" xmlns="http://www.w3.org/2000/svg">
<path d="M6.92271 5.05885H0.890062C0.398494 5.05885 0 5.46088 0 5.95681V38.3832C0 38.8791 0.398494 39.2811 0.890062 39.2811H6.92271C7.41427 39.2811 7.81277 38.8791 7.81277 38.3832V5.95681C7.81277 5.46088 7.41427 5.05885 6.92271 5.05885Z" fill="#8A1538"/>
<path d="M7.81277 19.6069L10.7349 16.9149H18.9749C20.5722 16.9149 22.1396 17.4251 23.3917 18.4247C24.668 19.4413 25.9816 21.0715 26.3846 23.5979C26.4612 24.0817 26.4891 24.5711 26.4891 25.0606V38.3832C26.4891 38.8783 26.0917 39.2811 25.5991 39.2811H20.0721C19.5814 39.2811 19.1821 38.8801 19.1821 38.3832V26.2729C19.1821 25.3185 18.4151 24.5448 17.4691 24.5448H7.8109V19.6069H7.81277Z" fill="#8A1538"/>
<path d="M22.2646 13.5829C24.5978 13.5829 26.4891 11.6747 26.4891 9.32087C26.4891 6.96702 24.5978 5.05885 22.2646 5.05885C19.9315 5.05885 18.0401 6.96702 18.0401 9.32087C18.0401 11.6747 19.9315 13.5829 22.2646 13.5829Z" fill="#8A1538"/>
<path d="M29.1332 20.6329H32.8782C33.2868 20.6329 33.6227 20.9586 33.6358 21.3709C33.7197 24.1363 34.7945 33.7484 45.6413 33.995C56.4882 34.2416 58.5109 24.061 58.8262 21.3106C58.871 20.9247 59.1938 20.6329 59.5782 20.6329H63.4594C63.8867 20.6329 64.23 20.9887 64.217 21.4198C64.1237 24.3998 63.0731 35.0172 52.9447 38.8086C48.4403 40.4953 43.4432 40.3786 38.9985 38.5375C34.0556 36.4912 28.2264 31.8565 28.3738 21.3878C28.3794 20.9699 28.719 20.6329 29.1332 20.6329Z" fill="#16B68A"/>
<path d="M28.9392 18.1329H32.9136C33.5593 18.1329 34.1806 17.8826 34.649 17.4308L46.2944 6.21284L57.2028 16.7549C57.6712 17.2067 58.2925 17.459 58.9419 17.459H63.0769C63.3978 17.459 63.6143 17.1295 63.4874 16.8321C62.894 15.4372 61.3396 12.1051 59.5521 10.8269C57.8335 9.5976 51.2075 3.59049 48.0223 0.682002C47.0352 -0.217841 45.5368 -0.229136 44.5386 0.659412L31.1559 12.5569C31.1559 12.5569 29.1724 15.2527 28.5081 17.555C28.4241 17.843 28.6406 18.131 28.9392 18.131V18.1329Z" fill="#16B68A"/>
<path d="M45.0928 16.9149H42.0288C41.7609 16.9149 41.5437 17.1341 41.5437 17.4044V20.4955C41.5437 20.7658 41.7609 20.9849 42.0288 20.9849H45.0928C45.3607 20.9849 45.5779 20.7658 45.5779 20.4955V17.4044C45.5779 17.1341 45.3607 16.9149 45.0928 16.9149Z" fill="#8A1538"/>
<path d="M50.3809 16.8679H47.317C47.049 16.8679 46.8318 17.087 46.8318 17.3573V20.4484C46.8318 20.7187 47.049 20.9379 47.317 20.9379H50.3809C50.6488 20.9379 50.866 20.7187 50.866 20.4484V17.3573C50.866 17.087 50.6488 16.8679 50.3809 16.8679Z" fill="#8A1538"/>
<path d="M44.8968 22.346H41.8329C41.565 22.346 41.3478 22.5651 41.3478 22.8355V25.9265C41.3478 26.1969 41.565 26.416 41.8329 26.416H44.8968C45.1648 26.416 45.382 26.1969 45.382 25.9265V22.8355C45.382 22.5651 45.1648 22.346 44.8968 22.346Z" fill="#8A1538"/>
<path d="M50.185 22.2989H47.1211C46.8531 22.2989 46.6359 22.5181 46.6359 22.7884V25.8795C46.6359 26.1498 46.8531 26.3689 47.1211 26.3689H50.185C50.4529 26.3689 50.6701 26.1498 50.6701 25.8795V22.7884C50.6701 22.5181 50.4529 22.2989 50.185 22.2989Z" fill="#8A1538"/>
<path d="M66.8256 39.2811H73.0504C73.4367 39.2811 73.7483 38.9649 73.7483 38.5771V22.3479L79.1166 38.7973C79.2118 39.0872 79.4786 39.2811 79.7809 39.2811H83.9364C84.2275 39.2811 84.4887 39.0985 84.5914 38.8237L90.7098 22.346V38.5752C90.7098 38.9649 91.0233 39.2792 91.4077 39.2792H97.4422C97.8285 39.2792 98.1401 38.963 98.1401 38.5752V5.7648C98.1401 5.37512 97.8266 5.06073 97.4422 5.06073H89.4876C89.1909 5.06073 88.9278 5.24899 88.8289 5.52948L82.1339 24.5749L75.8139 5.54266C75.7187 5.25463 75.4519 5.06073 75.1515 5.06073H66.8256C66.4393 5.06073 66.1277 5.377 66.1277 5.7648V38.5771C66.1277 38.9667 66.4412 39.2811 66.8256 39.2811Z" fill="#8A1538"/>
<path d="M100.695 5.05885H107.173C107.587 5.05885 107.953 5.32994 108.076 5.72903L114.157 25.4371L120.707 5.70832C120.836 5.31864 121.198 5.05697 121.605 5.05697H128.083C128.731 5.05697 129.188 5.69891 128.979 6.31826L118.093 38.6317C117.962 39.0195 117.602 39.2792 117.197 39.2792H111.222C110.814 39.2792 110.452 39.0138 110.323 38.6222L99.7971 6.30884C99.5955 5.69138 100.051 5.05697 100.696 5.05697L100.695 5.05885Z" fill="#8A1538"/>
<path d="M137.064 11.7889H131.061C130.456 11.7889 129.966 12.2836 129.966 12.8939V38.1761C129.966 38.7864 130.456 39.2811 131.061 39.2811H137.064C137.669 39.2811 138.159 38.7864 138.159 38.1761V12.8939C138.159 12.2836 137.669 11.7889 137.064 11.7889Z" fill="#8A1538"/>
<path d="M134.064 10.1059C136.576 10.1059 138.613 8.05106 138.613 5.5163C138.613 2.98155 136.576 0.926729 134.064 0.926729C131.551 0.926729 129.514 2.98155 129.514 5.5163C129.514 8.05106 131.551 10.1059 134.064 10.1059Z" fill="#8A1538"/>
<path d="M140.257 6.02082V38.3192C140.257 38.85 140.684 39.2811 141.21 39.2811H159.123C159.65 39.2811 160.077 38.85 160.077 38.3192V32.6471C160.077 32.1163 159.65 31.6852 159.123 31.6852H148.071V6.02082C148.071 5.48995 147.644 5.05885 147.118 5.05885H141.21C140.684 5.05885 140.257 5.48995 140.257 6.02082Z" fill="#8A1538"/>
<path d="M162.18 6.14883V38.4472C162.18 38.978 162.607 39.4091 163.133 39.4091H181.046C181.573 39.4091 182 38.978 182 38.4472V32.7751C182 32.2443 181.573 31.8132 181.046 31.8132H169.994V6.14883C169.994 5.61796 169.567 5.18686 169.041 5.18686H163.133C162.607 5.18686 162.18 5.61796 162.18 6.14883Z" fill="#8A1538"/>
</svg>
