<svg width="25" height="25" viewBox="0 0 25 25" fill="none" xmlns="http://www.w3.org/2000/svg">
<path d="M10.54 3.54004H4.54004C4.27482 3.54004 4.02047 3.6454 3.83293 3.83293C3.6454 4.02047 3.54004 4.27482 3.54004 4.54004V10.54C3.54004 10.8053 3.6454 11.0596 3.83293 11.2471C4.02047 11.4347 4.27482 11.54 4.54004 11.54H10.54C10.8053 11.54 11.0596 11.4347 11.2471 11.2471C11.4347 11.0596 11.54 10.8053 11.54 10.54V4.54004C11.54 4.27482 11.4347 4.02047 11.2471 3.83293C11.0596 3.6454 10.8053 3.54004 10.54 3.54004ZM20.54 3.54004H14.54C14.2748 3.54004 14.0205 3.6454 13.8329 3.83293C13.6454 4.02047 13.54 4.27482 13.54 4.54004V10.54C13.54 10.8053 13.6454 11.0596 13.8329 11.2471C14.0205 11.4347 14.2748 11.54 14.54 11.54H20.54C20.8053 11.54 21.0596 11.4347 21.2471 11.2471C21.4347 11.0596 21.54 10.8053 21.54 10.54V4.54004C21.54 4.27482 21.4347 4.02047 21.2471 3.83293C21.0596 3.6454 20.8053 3.54004 20.54 3.54004ZM10.54 13.54H4.54004C4.27482 13.54 4.02047 13.6454 3.83293 13.8329C3.6454 14.0205 3.54004 14.2748 3.54004 14.54V20.54C3.54004 20.8053 3.6454 21.0596 3.83293 21.2471C4.02047 21.4347 4.27482 21.54 4.54004 21.54H10.54C10.8053 21.54 11.0596 21.4347 11.2471 21.2471C11.4347 21.0596 11.54 20.8053 11.54 20.54V14.54C11.54 14.2748 11.4347 14.0205 11.2471 13.8329C11.0596 13.6454 10.8053 13.54 10.54 13.54ZM17.54 13.54C18.3226 13.54 19.0881 13.7696 19.7415 14.2003C20.3949 14.631 20.9076 15.244 21.2161 15.9632C21.5246 16.6824 21.6154 17.4764 21.4771 18.2467C21.3389 19.017 20.9777 19.7298 20.4383 20.2969C19.8989 20.8639 19.2051 21.2603 18.4426 21.4369C17.6802 21.6135 16.8827 21.5625 16.149 21.2904C15.4152 21.0182 14.7774 20.5368 14.3146 19.9057C13.8517 19.2746 13.5842 18.5217 13.545 17.74L13.54 17.54L13.545 17.34C13.5964 16.3151 14.0396 15.3491 14.7832 14.6418C15.5268 13.9345 16.5138 13.54 17.54 13.54Z" fill="#45007D"/>
</svg>
